<svg xmlns="http://www.w3.org/2000/svg" width="33" height="35" viewBox="0 0 33 35" fill="none">
  <path d="M18 0L11.6666 6.33333H14.8333V12.6667H21.1666V6.33333H24.3333M0.583313 3.16667V6.33333H3.74998L9.44998 18.3667L7.23331 22.1667C7.07498 22.6417 6.91665 23.1167 6.91665 23.75C6.91665 25.4917 8.34165 26.9167 10.0833 26.9167H29.0833V23.75H10.7166C10.5583 23.75 10.4 23.5917 10.4 23.4333V23.275L11.825 20.5833H23.5416C24.65 20.5833 25.7583 19.95 26.2333 19L32.4083 7.91667L29.7166 6.33333L23.5416 17.4167H12.4583L5.80831 3.16667M10.0833 28.5C8.34165 28.5 6.91665 29.925 6.91665 31.6667C6.91665 33.4083 8.34165 34.8333 10.0833 34.8333C11.825 34.8333 13.25 33.4083 13.25 31.6667C13.25 29.925 11.825 28.5 10.0833 28.5ZM25.9166 28.5C24.175 28.5 22.75 29.925 22.75 31.6667C22.75 33.4083 24.175 34.8333 25.9166 34.8333C27.6583 34.8333 29.0833 33.4083 29.0833 31.6667C29.0833 29.925 27.6583 28.5 25.9166 28.5Z" fill="#1D3557"/>
</svg>