<svg xmlns="http://www.w3.org/2000/svg" width="38" height="40" viewBox="0 0 38 40" fill="none">
  <path d="M11.8333 31.9997C13.8499 31.9997 15.4999 33.6497 15.4999 35.6663C15.4999 37.683 13.8499 39.333 11.8333 39.333C9.81659 39.333 8.16659 37.683 8.16659 35.6663C8.16659 33.6497 9.81659 31.9997 11.8333 31.9997ZM30.1666 31.9997C32.1833 31.9997 33.8333 33.6497 33.8333 35.6663C33.8333 37.683 32.1833 39.333 30.1666 39.333C28.1499 39.333 26.4999 37.683 26.4999 35.6663C26.4999 33.6497 28.1499 31.9997 30.1666 31.9997ZM12.1999 26.133C12.1999 26.3163 12.3833 26.4997 12.5666 26.4997H33.8333V30.1663H11.8333C9.81659 30.1663 8.16659 28.5163 8.16659 26.4997C8.16659 25.7663 8.34992 25.2163 8.53325 24.6663L10.9166 20.2663L4.49992 6.33301H0.833252V2.66634H6.88325L14.7666 19.1663H27.5999L34.7499 6.33301L37.8666 8.16634L30.7166 20.9997C30.1666 22.0997 28.8833 22.833 27.5999 22.833H13.8499L12.1999 25.7663V26.133ZM16.2333 0.833008C17.6999 0.833008 18.7999 1.93301 18.7999 3.39967C18.7999 4.86634 17.6999 5.96634 16.2333 5.96634C14.7666 5.96634 13.6666 4.86634 13.6666 3.39967C13.6666 1.93301 14.9499 0.833008 16.2333 0.833008ZM25.7666 15.4997C24.2999 15.4997 23.1999 14.3997 23.1999 12.933C23.1999 11.4663 24.2999 10.3663 25.7666 10.3663C27.2333 10.3663 28.3333 11.4663 28.3333 12.933C28.3333 14.3997 27.0499 15.4997 25.7666 15.4997ZM15.8666 15.4997L13.6666 13.2997L26.1333 0.833008L28.3333 3.03301L15.8666 15.4997Z" fill="#475B78"/>
</svg>