<svg xmlns="http://www.w3.org/2000/svg" width="46" height="46" viewBox="0 0 46 46" fill="none">
  <path d="M17.25 19.167V23.0003H13.4167V19.167H17.25ZM24.9167 19.167V23.0003H21.0833V19.167H24.9167ZM32.5833 19.167V23.0003H28.75V19.167H32.5833ZM36.4167 5.75033C37.4333 5.75033 38.4084 6.15419 39.1272 6.87308C39.8461 7.59197 40.25 8.567 40.25 9.58366V36.417C40.25 37.4337 39.8461 38.4087 39.1272 39.1276C38.4084 39.8465 37.4333 40.2503 36.4167 40.2503H9.58333C7.45583 40.2503 5.75 38.5253 5.75 36.417V9.58366C5.75 8.567 6.15387 7.59197 6.87276 6.87308C7.59165 6.15419 8.56667 5.75033 9.58333 5.75033H11.5V1.91699H15.3333V5.75033H30.6667V1.91699H34.5V5.75033H36.4167ZM36.4167 36.417V15.3337H9.58333V36.417H36.4167ZM17.25 26.8337V30.667H13.4167V26.8337H17.25ZM24.9167 26.8337V30.667H21.0833V26.8337H24.9167ZM32.5833 26.8337V30.667H28.75V26.8337H32.5833Z" fill="#F1FAEE"/>
</svg>