<svg xmlns="http://www.w3.org/2000/svg" width="85" height="86" viewBox="0 0 85 86" fill="none">
  <ellipse cx="42" cy="28.4082" rx="20" ry="20" fill="white"/>
  <path d="M40.8589 21.8872L42 23.2248L43.1411 21.8872C44.2255 20.6162 45.7771 19.9082 47.4 19.9082C50.1539 19.9082 52.5 22.2003 52.5 25.1479C52.5 27.1128 51.7014 28.9739 49.7983 31.355C48.0386 33.5567 45.4656 36.0465 42 39.3398C38.5345 36.0468 35.9596 33.5567 34.1983 31.3695C32.289 28.9985 31.5 27.1778 31.5 25.2982C31.5 22.2628 33.7863 19.9082 36.456 19.9082C38.2391 19.9082 39.7849 20.6284 40.8589 21.8872Z" fill="white" stroke="black" stroke-width="3"/>
</svg>