<svg xmlns="http://www.w3.org/2000/svg" width="28" height="30" viewBox="0 0 28 30" fill="none">
  <g clip-path="url(#clip0_49_126)">
    <path d="M27.9545 15C27.9545 6.71572 21.6967 0 13.9773 0C6.25783 0 0 6.71572 0 15C0 22.4868 5.11126 28.6925 11.7933 29.8178V19.3359H8.24441V15H11.7933V11.6953C11.7933 7.93594 13.8801 5.85938 17.0727 5.85938C18.6015 5.85938 20.2015 6.15234 20.2015 6.15234V9.84375H18.4391C16.7028 9.84375 16.1612 11.0001 16.1612 12.1875V15H20.0377L19.418 19.3359H16.1612V29.8178C22.8433 28.6925 27.9545 22.4868 27.9545 15Z" fill="#000100"/>
    <path d="M19.418 19.3359L20.0377 15H16.1612V12.1875C16.1612 11.0013 16.7028 9.84375 18.4391 9.84375H20.2015V6.15234C20.2015 6.15234 18.602 5.85938 17.0727 5.85938C13.8801 5.85938 11.7933 7.93594 11.7933 11.6953V15H8.24438V19.3359H11.7933V29.8178C13.2405 30.0607 14.714 30.0607 16.1612 29.8178V19.3359H19.418Z" fill="white"/>
  </g>
  <defs>
    <clipPath id="clip0_49_126">
      <rect width="27.9545" height="30" fill="white"/>
    </clipPath>
  </defs>
</svg>