<svg xmlns="http://www.w3.org/2000/svg" width="29" height="30" viewBox="0 0 29 30" fill="none">
  <g clip-path="url(#clip0_49_129)">
    <path d="M14.2308 2.70117C18.0331 2.70117 18.4833 2.71875 19.9787 2.78906C21.3684 2.85352 22.1188 3.09961 22.6191 3.30469C23.2807 3.57422 23.7587 3.90234 24.2535 4.42383C24.7538 4.95117 25.0595 5.44922 25.3152 6.14648C25.5098 6.67383 25.7432 7.4707 25.8044 8.92969C25.8711 10.5117 25.8878 10.9863 25.8878 14.9883C25.8878 18.9961 25.8711 19.4707 25.8044 21.0469C25.7432 22.5117 25.5098 23.3027 25.3152 23.8301C25.0595 24.5273 24.7482 25.0313 24.2535 25.5527C23.7532 26.0801 23.2807 26.4023 22.6191 26.6719C22.1188 26.877 21.3628 27.123 19.9787 27.1875C18.4778 27.2578 18.0275 27.2754 14.2308 27.2754C10.4285 27.2754 9.97822 27.2578 8.48287 27.1875C7.09315 27.123 6.3427 26.877 5.8424 26.6719C5.18089 26.4023 4.70283 26.0742 4.20808 25.5527C3.70778 25.0254 3.40204 24.5273 3.14633 23.8301C2.95177 23.3027 2.7183 22.5059 2.65715 21.0469C2.59045 19.4648 2.57377 18.9902 2.57377 14.9883C2.57377 10.9805 2.59045 10.5059 2.65715 8.92969C2.7183 7.46484 2.95177 6.67383 3.14633 6.14648C3.40204 5.44922 3.71334 4.94531 4.20808 4.42383C4.70838 3.89648 5.18089 3.57422 5.8424 3.30469C6.3427 3.09961 7.09871 2.85352 8.48287 2.78906C9.97822 2.71875 10.4285 2.70117 14.2308 2.70117ZM14.2308 0C10.3673 0 9.88372 0.0175781 8.36614 0.0878906C6.85412 0.158203 5.8146 0.416016 4.91406 0.785156C3.97461 1.17187 3.17969 1.68164 2.39033 2.51953C1.5954 3.35156 1.11178 4.18945 0.744892 5.17383C0.394682 6.12891 0.15009 7.21875 0.0833834 8.8125C0.0166767 10.418 0 10.9277 0 15C0 19.0723 0.0166767 19.582 0.0833834 21.1816C0.15009 22.7754 0.394682 23.8711 0.744892 24.8203C1.11178 25.8105 1.5954 26.6484 2.39033 27.4805C3.17969 28.3125 3.97461 28.8281 4.9085 29.209C5.8146 29.5781 6.84856 29.8359 8.36058 29.9062C9.87816 29.9766 10.3618 29.9941 14.2252 29.9941C18.0886 29.9941 18.5723 29.9766 20.0898 29.9062C21.6019 29.8359 22.6414 29.5781 23.5419 29.209C24.4758 28.8281 25.2707 28.3125 26.0601 27.4805C26.8495 26.6484 27.3386 25.8105 27.7 24.8262C28.0502 23.8711 28.2948 22.7813 28.3615 21.1875C28.4282 19.5879 28.4449 19.0781 28.4449 15.0059C28.4449 10.9336 28.4282 10.4238 28.3615 8.82422C28.2948 7.23047 28.0502 6.13477 27.7 5.18555C27.3498 4.18945 26.8661 3.35156 26.0712 2.51953C25.2819 1.6875 24.4869 1.17188 23.553 0.791016C22.6469 0.421875 21.613 0.164062 20.101 0.09375C18.5778 0.0175781 18.0942 0 14.2308 0Z" fill="#000100"/>
    <path d="M14.2308 7.29492C10.1951 7.29492 6.9209 10.7461 6.9209 15C6.9209 19.2539 10.1951 22.7051 14.2308 22.7051C18.2666 22.7051 21.5408 19.2539 21.5408 15C21.5408 10.7461 18.2666 7.29492 14.2308 7.29492ZM14.2308 19.998C11.6126 19.998 9.48911 17.7598 9.48911 15C9.48911 12.2402 11.6126 10.002 14.2308 10.002C16.8491 10.002 18.9726 12.2402 18.9726 15C18.9726 17.7598 16.8491 19.998 14.2308 19.998Z" fill="#000100"/>
    <path d="M23.5365 6.99024C23.5365 7.98633 22.7693 8.78907 21.8299 8.78907C20.8849 8.78907 20.1233 7.98047 20.1233 6.99024C20.1233 5.99414 20.8904 5.19141 21.8299 5.19141C22.7693 5.19141 23.5365 6 23.5365 6.99024Z" fill="#000100"/>
  </g>
  <defs>
    <clipPath id="clip0_49_129">
      <rect width="28.4615" height="30" fill="white"/>
    </clipPath>
  </defs>
</svg>