<svg xmlns="http://www.w3.org/2000/svg" width="40" height="45" viewBox="0 0 40 45" fill="none">
  <path d="M16 14.3337H20V26.5837H16V14.3337ZM18 38.8337C10.26 38.8337 4 32.4432 4 24.542C4 16.6407 10.26 10.2503 18 10.2503C24.38 10.2503 29.76 14.6195 31.44 20.5607C32 20.4587 32.48 20.4587 33 20.4587C33.88 20.4587 34.76 20.5607 35.6 20.7241C35 17.8862 33.78 15.2728 32.06 13.0882L34.9 10.1891C34 9.14783 33.1 8.20866 32.08 7.31033L29.24 10.2503C26.14 7.67783 22.24 6.16699 18 6.16699C8.06 6.16699 0 14.3949 0 24.542C0 34.6891 8.06 42.917 18 42.917C19.74 42.917 21.4 42.6516 23 42.2024C22.1 41.0999 21.4 39.8545 20.9 38.5274C20 38.7316 19 38.8337 18 38.8337ZM24 0.0419922H12V4.12533H24V0.0419922ZM32 25.5628V22.5003L27.5 27.0941L32 31.6878V28.6253C34.76 28.6253 37 30.912 37 33.7295C37 34.5462 36.82 35.322 36.48 36.0162L38.66 38.2416C39.5 36.9553 40 35.4037 40 33.7295C40 29.2174 36.42 25.5628 32 25.5628ZM32 38.8337C29.24 38.8337 27 36.547 27 33.7295C27 32.9128 27.18 32.137 27.52 31.4428L25.34 29.2174C24.5 30.5037 24 32.0553 24 33.7295C24 38.2416 27.58 41.8962 32 41.8962V44.9587L36.5 40.3649L32 35.7712V38.8337Z" fill="#475B78"/>
</svg>