<svg xmlns="http://www.w3.org/2000/svg" width="35" height="40" viewBox="0 0 35 40" fill="none">
  <path d="M19.5417 30.0751C18.4076 31.3456 16.5924 31.3456 15.4583 30.0751C10.0527 24.0193 7.29167 18.4639 7.29167 13.3337C7.29167 6.89034 11.8621 1.66699 17.5 1.66699C23.1379 1.66699 27.7083 6.89034 27.7083 13.3337C27.7083 18.4639 24.9473 24.0193 19.5417 30.0751ZM24.7917 13.3337C24.7917 8.73129 21.5271 5.00033 17.5 5.00033C13.4729 5.00033 10.2083 8.73129 10.2083 13.3337C10.2083 17.3931 12.6 22.2052 17.5 27.6947C22.4 22.2052 24.7917 17.3931 24.7917 13.3337ZM17.5 17.5003C15.0838 17.5003 13.125 15.2617 13.125 12.5003C13.125 9.7389 15.0838 7.50033 17.5 7.50033C19.9162 7.50033 21.875 9.7389 21.875 12.5003C21.875 15.2617 19.9162 17.5003 17.5 17.5003ZM17.5 14.167C18.3054 14.167 18.9583 13.4208 18.9583 12.5003C18.9583 11.5799 18.3054 10.8337 17.5 10.8337C16.6946 10.8337 16.0417 11.5799 16.0417 12.5003C16.0417 13.4208 16.6946 14.167 17.5 14.167ZM8.73837 26.5709C9.4925 26.2477 10.3331 26.6844 10.6159 27.5462C10.8987 28.4081 10.5166 29.3688 9.76248 29.692C8.0977 30.4055 7.29167 31.2222 7.29167 31.667C7.29167 33.062 11.8144 35.0003 17.5 35.0003C23.1856 35.0003 27.7083 33.062 27.7083 31.667C27.7083 31.2222 26.9023 30.4055 25.2375 29.692C24.4834 29.3688 24.1013 28.4081 24.3841 27.5462C24.6669 26.6844 25.5075 26.2477 26.2616 26.5709C28.9445 27.7207 30.625 29.4235 30.625 31.667C30.625 35.7948 24.701 38.3337 17.5 38.3337C10.299 38.3337 4.375 35.7948 4.375 31.667C4.375 29.4235 6.05553 27.7207 8.73837 26.5709Z" fill="black"/>
</svg>