<svg xmlns="http://www.w3.org/2000/svg" width="35" height="40" viewBox="0 0 35 40" fill="none">
  <path d="M26.418 35.1523C27.0101 35.1087 27.5201 34.6594 27.7077 34.0161L28.7545 30.4272C28.9292 29.8283 28.7928 29.1681 28.4022 28.7217L25.7343 25.6727C25.2575 25.1278 24.516 25.0275 23.9411 25.4302L21.4688 27.162C19.744 28.3701 17.5194 28.0693 16.089 26.4345L12.3288 22.1372C10.8983 20.5024 10.6351 17.96 11.6922 15.9888L13.2075 13.1633C13.5599 12.5063 13.4722 11.6588 12.9954 11.1139L10.3275 8.06489C9.93692 7.6185 9.35918 7.46263 8.83515 7.66226L5.69488 8.85855C5.13197 9.073 4.73886 9.65585 4.70073 10.3326C4.516 13.6107 7.30208 18.7494 13.1777 25.4643C19.0533 32.1793 23.5497 35.3634 26.418 35.1523ZM26.6054 38.4787C22.629 38.7714 17.5486 35.1737 11.1153 27.8214C4.68196 20.469 1.534 14.6628 1.79009 10.1183C1.9045 8.08816 3.0838 6.33961 4.77255 5.69627L7.91282 4.49998C9.4849 3.90109 11.2181 4.3687 12.3899 5.70787L15.0578 8.75684C16.4882 10.3916 16.7514 12.934 15.6943 14.9052L14.179 17.7307C13.8266 18.3878 13.9144 19.2352 14.3912 19.7801L18.1513 24.0775C18.6282 24.6224 19.3697 24.7227 19.9446 24.32L22.4169 22.5882C24.1417 21.3801 26.3663 21.6809 27.7967 23.3157L30.4646 26.3647C31.6364 27.7038 32.0455 29.6846 31.5215 31.4813L30.4747 35.0702C29.9118 37.0002 28.3818 38.348 26.6054 38.4787ZM32.4479 16.6245C32.3324 17.5355 31.5926 18.1669 30.7955 18.0349C29.9984 17.9028 29.4459 17.0573 29.5614 16.1464C29.9036 13.449 29.1256 10.7024 27.3955 8.72513C25.6654 6.7479 23.2621 5.85878 20.9019 6.24977C20.1048 6.38181 19.365 5.75038 19.2495 4.83943C19.1339 3.92847 19.6864 3.08295 20.4835 2.95091C23.7463 2.4104 27.0712 3.64049 29.4579 6.36811C31.8446 9.09572 32.9209 12.8957 32.4479 16.6245ZM27.0945 17.585C26.9757 18.4954 26.2337 19.1234 25.4371 18.9877C24.6405 18.852 24.0909 18.0039 24.2097 17.0935C24.3809 15.781 24.0085 14.4507 23.1724 13.4952C22.3363 12.5397 21.1723 12.1141 20.0238 12.3097C19.2272 12.4454 18.4852 11.8174 18.3664 10.907C18.2477 9.99656 18.7972 9.14851 19.5938 9.0128C21.647 8.66303 23.7381 9.42766 25.2348 11.1381C26.7315 12.8486 27.4005 15.2385 27.0945 17.585Z" fill="black"/>
</svg>