<svg xmlns="http://www.w3.org/2000/svg" width="22" height="25" viewBox="0 0 27 30" fill="none">
  <path d="M12.0896 0V5.45455H9.40298L14.7761 10.9091L20.1493 5.45455H17.4627V0M0 2.72727V5.45455H2.68657L7.52239 15.8182L5.64179 19.0909C5.50746 19.5 5.37313 19.9091 5.37313 20.4545C5.37313 21.9545 6.58209 23.1818 8.0597 23.1818H24.1791V20.4545H8.59701C8.46269 20.4545 8.32836 20.3182 8.32836 20.1818V20.0455L9.53731 17.7273H19.4776C20.4179 17.7273 21.3582 17.1818 21.7612 16.3636L27 6.81818L24.7164 5.45455L19.4776 15H10.0746L4.43284 2.72727M8.0597 24.5455C6.58209 24.5455 5.37313 25.7727 5.37313 27.2727C5.37313 28.7727 6.58209 30 8.0597 30C9.53731 30 10.7463 28.7727 10.7463 27.2727C10.7463 25.7727 9.53731 24.5455 8.0597 24.5455ZM21.4925 24.5455C20.0149 24.5455 18.806 25.7727 18.806 27.2727C18.806 28.7727 20.0149 30 21.4925 30C22.9701 30 24.1791 28.7727 24.1791 27.2727C24.1791 25.7727 22.9701 24.5455 21.4925 24.5455Z" fill="#1D3557"/>
</svg>