<svg xmlns="http://www.w3.org/2000/svg" width="37" height="37" viewBox="0 0 37 37" fill="none">
  <path d="M35.8972 33.3526L33.353 35.8968C33.0173 36.2305 32.5632 36.4178 32.0899 36.4178C31.6166 36.4178 31.1625 36.2305 30.8268 35.8968L9.54179 14.6476C8.95916 14.8164 8.35663 14.9068 7.75012 14.9163C6.60937 14.9155 5.48529 14.6424 4.47135 14.1197C3.45741 13.597 2.58289 12.8398 1.9205 11.911C1.25812 10.9823 0.827009 9.90887 0.663013 8.77997C0.499017 7.65107 0.606875 6.49933 0.977618 5.42051L5.52845 9.97134L6.47803 9.02176L9.0222 6.47759L9.97178 5.52801L5.42095 0.977175C6.49977 0.606431 7.65151 0.498573 8.78041 0.662569C9.90931 0.826565 10.9828 1.25768 11.9115 1.92006C12.8402 2.58244 13.5974 3.45696 14.1201 4.47091C14.6429 5.48485 14.916 6.60893 14.9168 7.74967C14.9072 8.35618 14.8168 8.95871 14.648 9.54134L35.8972 30.8263C36.2309 31.162 36.4182 31.6161 36.4182 32.0895C36.4182 32.5628 36.2309 33.0169 35.8972 33.3526ZM1.10303 30.8263C0.769335 31.162 0.582031 31.6161 0.582031 32.0895C0.582031 32.5628 0.769335 33.0169 1.10303 33.3526L3.6472 35.8968C3.98289 36.2305 4.43699 36.4178 4.91033 36.4178C5.38366 36.4178 5.83776 36.2305 6.17345 35.8968L15.9739 26.1143L10.9035 21.0438M32.8335 0.583008L25.6668 4.16634V7.74967L21.7789 11.6376L25.3622 15.2209L29.2501 11.333H32.8335L36.4168 4.16634L32.8335 0.583008Z" fill="#475B78"/>
</svg>