<svg xmlns="http://www.w3.org/2000/svg" width="68" height="68" viewBox="0 0 68 68" fill="none">
  <path d="M11.3334 5.66699H56.6667C58.1696 5.66699 59.6109 6.26401 60.6736 7.32672C61.7363 8.38943 62.3334 9.83077 62.3334 11.3337V45.3337C62.3334 46.8366 61.7363 48.2779 60.6736 49.3406C59.6109 50.4033 58.1696 51.0003 56.6667 51.0003H45.3334L34 62.3337L22.6667 51.0003H11.3334C9.83046 51.0003 8.38912 50.4033 7.32642 49.3406C6.26371 48.2779 5.66669 46.8366 5.66669 45.3337V11.3337C5.66669 9.83077 6.26371 8.38943 7.32642 7.32672C8.38912 6.26401 9.83046 5.66699 11.3334 5.66699ZM53.8334 42.5003V19.8337L42.5 31.167L36.8334 25.5003L19.8334 42.5003H53.8334ZM19.8334 14.167C18.3305 14.167 16.8891 14.764 15.8264 15.8267C14.7637 16.8894 14.1667 18.3308 14.1667 19.8337C14.1667 21.3366 14.7637 22.7779 15.8264 23.8406C16.8891 24.9033 18.3305 25.5003 19.8334 25.5003C21.3362 25.5003 22.7776 24.9033 23.8403 23.8406C24.903 22.7779 25.5 21.3366 25.5 19.8337C25.5 18.3308 24.903 16.8894 23.8403 15.8267C22.7776 14.764 21.3362 14.167 19.8334 14.167Z" fill="white" fill-opacity="0.44"/>
</svg>