<svg xmlns="http://www.w3.org/2000/svg" width="29" height="30" viewBox="0 0 29 30" fill="none">
  <path d="M0 30L2.00588 22.2962C0.76811 20.0413 0.117713 17.485 0.118902 14.8637C0.12247 6.66875 6.46592 0 14.26 0C18.0423 0.00125 21.5927 1.55 24.2632 4.36C26.9326 7.17 28.4022 10.905 28.401 14.8775C28.3975 23.0738 22.054 29.7425 14.26 29.7425C11.8938 29.7413 9.56213 29.1175 7.4968 27.9325L0 30ZM7.84399 25.2413C9.8368 26.485 11.7392 27.23 14.2552 27.2313C20.733 27.2313 26.0099 21.6887 26.0135 14.875C26.0159 8.0475 20.7639 2.5125 14.2647 2.51C7.78216 2.51 2.50884 8.0525 2.50646 14.865C2.50527 17.6462 3.28052 19.7287 4.5825 21.9075L3.39466 26.4675L7.84399 25.2413ZM21.3834 18.4113C21.2954 18.2563 21.06 18.1637 20.7057 17.9775C20.3525 17.7913 18.6154 16.8925 18.2908 16.7687C17.9673 16.645 17.7319 16.5825 17.4953 16.955C17.2599 17.3263 16.5821 18.1637 16.3764 18.4113C16.1707 18.6588 15.9638 18.69 15.6107 18.5037C15.2576 18.3175 14.1185 17.9263 12.7689 16.66C11.719 15.675 11.0092 14.4587 10.8035 14.0863C10.5978 13.715 10.7821 13.5138 10.958 13.3288C11.1174 13.1625 11.3112 12.895 11.4884 12.6775C11.6679 12.4625 11.7262 12.3075 11.8451 12.0588C11.9628 11.8113 11.9045 11.5938 11.8153 11.4075C11.7262 11.2225 11.0199 9.39375 10.7262 8.65C10.4384 7.92625 10.1471 8.02375 9.93073 8.0125L9.25299 8C9.01756 8 8.6347 8.0925 8.31128 8.465C7.98787 8.8375 7.0747 9.735 7.0747 11.5638C7.0747 13.3925 8.34101 15.1587 8.51698 15.4062C8.69415 15.6537 11.008 19.4062 14.5525 21.015C15.3955 21.3975 16.0542 21.6262 16.5667 21.7975C17.4133 22.08 18.1838 22.04 18.7925 21.945C19.4715 21.8387 20.8828 21.0462 21.1777 20.1787C21.4726 19.31 21.4726 18.5662 21.3834 18.4113Z" fill="#000100"/>
</svg>