<svg xmlns="http://www.w3.org/2000/svg" width="29" height="30" viewBox="0 0 29 30" fill="none">
  <g clip-path="url(#clip0_49_128)">
    <path d="M27.6022 7.73164C27.443 7.09341 27.1292 6.51092 26.6922 6.04246C26.2553 5.574 25.7105 5.23602 25.1123 5.06232C22.9105 4.43164 14.1095 4.43164 14.1095 4.43164C14.1095 4.43164 5.30844 4.43164 3.10659 5.06232C2.50846 5.23602 1.96366 5.574 1.52669 6.04246C1.08972 6.51092 0.775925 7.09341 0.6167 7.73164C0.0278321 10.0873 0.027832 14.9998 0.027832 14.9998C0.027832 14.9998 0.0278321 19.9123 0.6167 22.268C0.775925 22.9062 1.08972 23.4887 1.52669 23.9572C1.96366 24.4256 2.50846 24.7636 3.10659 24.9373C5.30844 25.568 14.1095 25.568 14.1095 25.568C14.1095 25.568 22.9105 25.568 25.1123 24.9373C25.7105 24.7636 26.2553 24.4256 26.6922 23.9572C27.1292 23.4887 27.443 22.9062 27.6022 22.268C28.1911 19.9123 28.1911 14.9998 28.1911 14.9998C28.1911 14.9998 28.1911 10.0873 27.6022 7.73164Z" fill="#000100"/>
    <path d="M11.2292 19.4607V10.5391L18.5901 14.9999L11.2292 19.4607Z" fill="#FEFEFE"/>
  </g>
  <defs>
    <clipPath id="clip0_49_128">
      <rect width="28.1633" height="30" fill="white"/>
    </clipPath>
  </defs>
</svg>